<?xml version="1.0" encoding="UTF-8" standalone="no"?>
<!-- Generator: Adobe Illustrator 19.0.0, SVG Export Plug-In . SVG Version: 6.00 Build 0)  -->

<svg
   xmlns:dc="http://purl.org/dc/elements/1.1/"
   xmlns:cc="http://creativecommons.org/ns#"
   xmlns:rdf="http://www.w3.org/1999/02/22-rdf-syntax-ns#"
   xmlns:svg="http://www.w3.org/2000/svg"
   xmlns="http://www.w3.org/2000/svg"
   xmlns:sodipodi="http://sodipodi.sourceforge.net/DTD/sodipodi-0.dtd"
   xmlns:inkscape="http://www.inkscape.org/namespaces/inkscape"
   version="1.1"
   id="Capa_1"
   x="0px"
   y="0px"
   viewBox="0 0 384.97 384.97"
   style="enable-background:new 0 0 384.97 384.97;"
   xml:space="preserve"
   sodipodi:docname="login.svg"
   inkscape:version="0.92.3 (2405546, 2018-03-11)"><metadata
   id="metadata925"><rdf:RDF><cc:Work
       rdf:about=""><dc:format>image/svg+xml</dc:format><dc:type
         rdf:resource="http://purl.org/dc/dcmitype/StillImage" /></cc:Work></rdf:RDF></metadata><defs
   id="defs923" /><sodipodi:namedview
   pagecolor="#ffffff"
   bordercolor="#666666"
   borderopacity="1"
   objecttolerance="10"
   gridtolerance="10"
   guidetolerance="10"
   inkscape:pageopacity="0"
   inkscape:pageshadow="2"
   inkscape:window-width="2560"
   inkscape:window-height="1377"
   id="namedview921"
   showgrid="false"
   inkscape:zoom="1.5689534"
   inkscape:cx="297.76706"
   inkscape:cy="115.08593"
   inkscape:window-x="1912"
   inkscape:window-y="-8"
   inkscape:window-maximized="1"
   inkscape:current-layer="g888" />
<g
   id="g888">
	<g
   id="Sign_In">
		<path
   d="M372.939,0H204.515c-6.641,0-12.03,5.39-12.03,12.03s5.39,12.03,12.03,12.03h156.394v336.848H204.515    c-6.641,0-12.03,5.39-12.03,12.03s5.39,12.03,12.03,12.03h168.424c6.641,0,12.03-5.39,12.03-12.03V12.03    C384.97,5.39,379.58,0,372.939,0z"
   id="path871"
   style="fill:#ffffff;fill-opacity:1;stroke:#ffffff;stroke-opacity:1" />
		<path
   d="M197.213,268.276c-4.704,4.752-4.704,12.439,0,17.179c4.704,4.752,12.319,4.752,17.011,0l82.997-84.2    c4.632-4.68,4.68-12.512,0-17.191l-83.009-84.2c-4.704-4.752-12.319-4.74-17.011,0c-4.704,4.74-4.704,12.439,0,17.179    l62.558,63.46H12.03C5.39,180.503,0,185.94,0,192.653c0,6.713,5.39,12.151,12.03,12.151h247.74L197.213,268.276z"
   id="path873"
   style="stroke:#ffffff;stroke-opacity:1;fill:#ffffff;fill-opacity:1" />
	</g>
	<g
   id="g876">
	</g>
	<g
   id="g878">
	</g>
	<g
   id="g880">
	</g>
	<g
   id="g882">
	</g>
	<g
   id="g884">
	</g>
	<g
   id="g886">
	</g>
</g>
<g
   id="g890">
</g>
<g
   id="g892">
</g>
<g
   id="g894">
</g>
<g
   id="g896">
</g>
<g
   id="g898">
</g>
<g
   id="g900">
</g>
<g
   id="g902">
</g>
<g
   id="g904">
</g>
<g
   id="g906">
</g>
<g
   id="g908">
</g>
<g
   id="g910">
</g>
<g
   id="g912">
</g>
<g
   id="g914">
</g>
<g
   id="g916">
</g>
<g
   id="g918">
</g>
</svg>